<svg xmlns="http://www.w3.org/2000/svg" xmlns:xlink="http://www.w3.org/1999/xlink" width="12" height="16" version="1.1" viewBox="0 0 12 16"><title>Fill 1</title><desc>Created with Sketch.</desc><g id="Page-1" fill="none" fill-rule="evenodd" stroke="none" stroke-width="1"><g id="snapshot-report" fill="#FFA815" transform="translate(-32.000000, -3734.000000)"><g id="performance" transform="translate(29.000000, 3174.000000)"><g id="opportunities" transform="translate(0.000000, 560.000000)"><path id="Fill-1" d="M8.96063574,14 L8.96063574,9 L4.98663574,9 L8.96063574,2 L8.96063574,7 L12.9346357,7 L8.96063574,14 Z M12.9396357,5 L10.9476357,5 L10.9476357,2 C10.9476357,1.093 10.3416357,0.3 9.47063574,0.067 C9.30063574,0.022 9.12963574,0 8.96063574,0 C8.26063574,0 7.59563574,0.374 7.23563574,1.008 L3.26163574,8.008 C2.91063574,8.627 2.91263574,9.387 3.26863574,10.004 C3.62363574,10.621 4.27863574,11 4.98663574,11 L6.97363574,11 L6.97363574,14 C6.97363574,14.907 7.57963574,15.7 8.45063574,15.933 C8.62063574,15.978 8.79163574,16 8.96063574,16 C9.66063574,16 10.3256357,15.626 10.6856357,14.992 L14.6176357,8.065 C14.8116357,7.757 14.9236357,7.392 14.9236357,7 C14.9236357,5.896 14.0366357,5 12.9396357,5 Z"/></g></g></g></g></svg>