<svg xmlns="http://www.w3.org/2000/svg" xmlns:xlink="http://www.w3.org/1999/xlink" id="Layer_1" width="40" height="58" x="0" y="0" enable-background="new 0 0 40 58" version="1.1" viewBox="0 0 40 58" xml:space="preserve"><g><defs><rect id="SVGID_1_" width="40" height="58"/></defs><clipPath id="SVGID_2_"><use overflow="visible" xlink:href="#SVGID_1_"/></clipPath><path fill="#FFF" d="M39,38c0,10.493-8.507,19-19,19S1,48.493,1,38s8.507-19,19-19S39,27.507,39,38" clip-path="url(#SVGID_2_)"/><circle cx="20" cy="38" r="19" fill="none" stroke="#188BF6" stroke-linecap="round" stroke-linejoin="round" stroke-miterlimit="10" stroke-width="2" clip-path="url(#SVGID_2_)"/><path fill="none" stroke="#188BF6" stroke-linecap="round" stroke-linejoin="round" stroke-miterlimit="10" stroke-width="2" d="M20,19c3.674,0,7.093,1.06,10,2.866V10.219C30,5.149,25.5,1,20,1s-10,4.149-10,9.219v11.647C12.907,20.06,16.326,19,20,19z" clip-path="url(#SVGID_2_)"/><path fill="#DEEFFF" d="M28,38c0,4.418-3.582,8-8,8s-8-3.582-8-8s3.582-8,8-8S28,33.582,28,38" clip-path="url(#SVGID_2_)"/><circle cx="20" cy="38" r="8" fill="none" stroke="#188BF6" stroke-linecap="round" stroke-linejoin="round" stroke-miterlimit="10" stroke-width="2" clip-path="url(#SVGID_2_)"/><line x1="20" x2="20" y1="30" y2="26" fill="none" stroke="#188BF6" stroke-linecap="round" stroke-linejoin="round" stroke-miterlimit="10" stroke-width="2" clip-path="url(#SVGID_2_)"/><line x1="20" x2="20" y1="50" y2="46" fill="none" stroke="#188BF6" stroke-linecap="round" stroke-linejoin="round" stroke-miterlimit="10" stroke-width="2" clip-path="url(#SVGID_2_)"/><line x1="25.657" x2="28.485" y1="43.657" y2="46.485" fill="none" stroke="#188BF6" stroke-linecap="round" stroke-linejoin="round" stroke-miterlimit="10" stroke-width="2" clip-path="url(#SVGID_2_)"/><line x1="11.515" x2="14.343" y1="46.485" y2="43.657" fill="none" stroke="#188BF6" stroke-linecap="round" stroke-linejoin="round" stroke-miterlimit="10" stroke-width="2" clip-path="url(#SVGID_2_)"/><line x1="25.657" x2="28.485" y1="32.343" y2="29.515" fill="none" stroke="#188BF6" stroke-linecap="round" stroke-linejoin="round" stroke-miterlimit="10" stroke-width="2" clip-path="url(#SVGID_2_)"/><line x1="11.515" x2="14.343" y1="29.515" y2="32.343" fill="none" stroke="#188BF6" stroke-linecap="round" stroke-linejoin="round" stroke-miterlimit="10" stroke-width="2" clip-path="url(#SVGID_2_)"/><line x1="28" x2="32" y1="38" y2="38" fill="none" stroke="#188BF6" stroke-linecap="round" stroke-linejoin="round" stroke-miterlimit="10" stroke-width="2" clip-path="url(#SVGID_2_)"/><line x1="8" x2="12" y1="38" y2="38" fill="none" stroke="#188BF6" stroke-linecap="round" stroke-linejoin="round" stroke-miterlimit="10" stroke-width="2" clip-path="url(#SVGID_2_)"/></g></svg>