<svg xmlns="http://www.w3.org/2000/svg" xmlns:xlink="http://www.w3.org/1999/xlink" width="12" height="16" version="1.1" viewBox="0 0 12 16"><title>Fill 1</title><desc>Created with Sketch.</desc><g id="Page-1" fill="none" fill-rule="evenodd" stroke="none" stroke-width="1"><g id="locations-list" fill="#FFBC00" transform="translate(-702.000000, -215.000000)"><g id="2" transform="translate(660.000000, 175.000000)"><g id="hot-lead" transform="translate(30.000000, 30.000000)"><path id="Fill-1" d="M17.783377,23.7500152 C16.4480531,23.7500152 15.3673755,22.699348 15.3673755,21.394004 C15.3673755,20.1786607 16.1560539,19.3246603 17.4747121,19.0533484 C18.8027238,18.7840168 20.1760405,18.1453598 20.9407105,17.1193407 C21.2340503,18.0873499 21.3840412,19.1066663 21.3840412,20.1500213 C21.3840412,22.1366766 19.7700323,23.7500152 17.783377,23.7500152 M19.1260435,10 C19.1260435,10 19.6820425,11.9873256 19.6820425,13.5999939 C19.6820425,15.1446591 18.6693681,16.397325 17.1233624,16.397325 C15.570014,16.397325 14.4013467,15.1446591 14.4013467,13.5999939 L14.4233441,13.3299921 C12.908019,15.1300043 12,17.4639876 12,19.9993297 C12,23.314667 14.685333,26 18.0006703,26 C21.3160076,26 24.001371,23.314667 24.001371,19.9993297 C24.001371,15.9553348 22.0593809,12.347328 19.1260435,10"/></g></g></g></g></svg>