<svg xmlns="http://www.w3.org/2000/svg" xmlns:xlink="http://www.w3.org/1999/xlink" width="13" height="16" version="1.1" viewBox="0 0 13 16"><title>Fill 1</title><desc>Created with Sketch.</desc><g id="Page-1" fill="none" fill-rule="evenodd" stroke="none" stroke-width="1"><g id="sales-resources" fill="#0196F5" transform="translate(-605.000000, -215.000000)"><g id="1" transform="translate(280.000000, 175.000000)"><path id="Fill-1" d="M332.75,45.6 L332.75,41.2 L336.875,45.6 L332.75,45.6 Z M328,49.6 L335,49.6 L335,48 L328,48 L328,49.6 Z M328,52.8 L335,52.8 L335,51.2 L328,51.2 L328,52.8 Z M333.5,40 L326.5,40 C325.675,40 325.0075,40.72 325.0075,41.6 L325,54.4 C325,55.28 325.6675,56 326.4925,56 L336.5,56 C337.325,56 338,55.28 338,54.4 L338,44.8 L333.5,40 Z"/></g></g></g></svg>